# AST/ASF file generated using VICON BodyLanguage
# -----------------------------------------------
:version 1.10
:name VICON
:units
  mass 1.0
  length 0.45
  angle deg
:documentation
   .ast/.asf automatically generated from VICON data using
   VICON BodyBuilder and BodyLanguage model FoxedUp or BRILLIANT.MOD
:root
   order TX TY TZ RX RY RZ
   axis XYZ
   position 0 0 0  
   orientation 0 0 0 
:bonedata
  begin
     id 1 
     name lhipjoint
     direction 0.722297 -0.617336 0.311742 
     length 2.6635 
     axis 0 0 0  XYZ
  end
  begin
     id 2 
     name lfemur
     direction 0.34202 -0.939693 0  
     length 7.39349  
     axis 0 0 20  XYZ
    dof rx ry rz
    limits (-160.0 20.0)
           (-70.0 70.0)
           (-60.0 70.0)
  end
  begin
     id 3 
     name ltibia
     direction 0.34202 -0.939693 0   
     length 7.36294   
     axis 0 0 20   XYZ
    dof rx
    limits (-10.0 170.0)
  end
  begin
     id 4 
     name lfoot
     direction 0.104879 -0.288152 0.951824   
     length 2.16981   
     axis -90 7.62852e-016 20   XYZ
    dof rx rz
    limits (-45.0 90.0)
           (-70.0 20.0)
  end
  begin
     id 5 
     name ltoes
     direction 1.53586e-011 -4.21895e-011 1   
     length 1.08218   
     axis -90 7.62852e-016 20   XYZ
    dof rx
    limits (-90.0 20.0)
  end
  begin
     id 6 
     name rhipjoint
     direction -0.75102 -0.589393 0.297631   
     length 2.78977  
     axis 0 0 0  XYZ 
  end
  begin
     id 7 
     name rfemur
     direction -0.34202 -0.939693 0   
     length 7.46076   
     axis 0 0 -20   XYZ
    dof rx ry rz
    limits (-160.0 20.0)
           (-70.0 70.0)
           (-70.0 60.0)
  end
  begin
     id 8 
     name rtibia
     direction -0.34202 -0.939693 0   
     length 7.31726   
     axis 0 0 -20   XYZ
    dof rx
    limits (-10.0 170.0)
 end
 begin
     id 9 
     name rfoot
     direction -0.107991 -0.296704 0.948844   
     length 2.09388  
     axis -90 -7.62852e-016 -20   XYZ
    dof rx rz
    limits (-45.0 90.0)
           (-20.0 70.0)
  end
  begin
     id 10 
     name rtoes
     direction -1.53559e-011 -4.21911e-011 1   
     length 1.04433   
     axis -90 -7.62852e-016 -20   XYZ
    dof rx
    limits (-90.0 20.0)
  end
  begin
     id 11 
     name lowerback
     direction 0.0165164 0.98272 0.184358   
     length 1.71896   
     axis 0 0 0   XYZ
    dof rx ry rz
    limits (-20.0 45.0)
           (-30.0 30.0)
           (-30.0 30.0)
  end
  begin
     id 12 
     name upperback
     direction -0.00887249 0.992297 0.123566   
     length 1.71504   
     axis 0 0 0   XYZ
    dof rx ry rz
    limits (-20.0 45.0)
           (-30.0 30.0)
           (-30.0 30.0)
  end
  begin
     id 13 
     name thorax
     direction -0.0157026 0.998908 0.0440032   
     length 1.77022   
     axis 0 0 0   XYZ
    dof rx ry rz
    limits (-20.0 45.0)
           (-30.0 30.0)
           (-30.0 30.0)
  end
  begin
     id 14 
     name lowerneck
     direction -0.0238856 0.998137 0.0561411   
     length 1.89341   
     axis 0 0 0   XYZ
    dof rx ry rz
    limits (-20.0 45.0)
           (-30.0 30.0)
           (-30.0 30.0)
  end
  begin
     id 15 
     name upperneck
     direction 0.0276574 0.952253 -0.304056   
     length 1.86999   
     axis 0 0 0   XYZ
    dof rx ry rz
    limits (-20.0 45.0)
           (-30.0 30.0)
           (-30.0 30.0)
  end
  begin
     id 16
     name head
     direction 0.00800083 0.994258 -0.106712  
     length 1.91492  
     axis 0 0 0   XYZ
    dof rx ry rz
    limits (-20.0 45.0)
           (-30.0 30.0)
           (-30.0 30.0)
  end
  begin
     id 17 
     name lclavicle
     direction 0.97203 0.225407 0.06595  
     length 3.34889  
     axis 0 0 0   XYZ
    dof ry rz
    limits (-20.0 10.0)
           (0.0 20.0)
  end
  begin
     id 18 
     name lhumerus
     direction 1 -4.48973e-011 2.20267e-027   
     length 4.85645   
     axis 180 -30 -90   XYZ
    dof rx ry rz
    limits (-60.0 90.0)
           (-90.0 90.0)
           (-90.0 90.0)
  end
  begin
     id 19
     name lradius
     direction 1 -4.4897e-011 4.60472e-027   
     length 2.79874   
     axis 180 -30 -90   XYZ
    dof rx
    limits (-10.0 170.0)
  end
  begin
     id 20
     name lwrist
     direction 1 -4.48952e-011 1.14928e-026   
     length 1.39937   
     axis -6.29373e-015 90 90   XYZ
    dof ry
    limits (-180.0 0.0)
 end
  begin
     id 21 
     name lhand
     direction 1 -4.48967e-011 2.29886e-026   
     length 0.573398   
     axis -1.46689e-014 90 90   XYZ
    dof rx rz
    limits (-90.0 90.0)
           (-45.0 45.0)
  end
  begin
     id 22 
     name lfingers
     direction 1 -4.48955e-011 4.59726e-026   
     length 0.462289   
     axis -2.93383e-014 90 90   XYZ
    dof rx
    limits (0.0 90.0)
  end
  begin
     id 23
     name lthumb
     direction 0.707107 -6.34866e-011 0.707107   
     length 0.663757   
     axis -90 45 5.69224e-014   XYZ
    dof rx rz
    limits (-45.0 45.0)
           (-45.0 45.0)
  end
  begin
     id 24 
     name rclavicle
     direction -0.981571 0.157346 0.108443   
     length 3.35257  
     axis 0 0 0   XYZ 
    dof ry rz
    limits (-10.0 20.0)
           (-20.0 0.0)
  end
  begin
     id 25 
     name rhumerus
     direction -1 -4.48967e-011 8.58308e-029  
     length 4.67018   
     axis 180 30 90   XYZ
    dof rx ry rz
    limits (-90.0 60.0)
           (-90.0 90.0)
           (-90.0 90.0)
  end
  begin
     id 26 
     name rradius
     direction -1 -4.48958e-011 4.52548e-027   
     length 2.65534   
     axis 180 30 90   XYZ
    dof rx
    limits (-10.0 170.0)
  end
  begin
     id 27 
     name rwrist
     direction -1 -4.48977e-011 1.14952e-026   
     length 1.32767   
     axis -6.29373e-015 -90 -90   XYZ
    dof ry
    limits (-180.0 0.0)
  end
  begin
     id 28
     name rhand
     direction -1 -4.48924e-011 2.29804e-026   
     length 0.594069   
     axis -1.46689e-014 -90 -90   XYZ
    dof rx rz
    limits (-90.0 90.0)
           (-45.0 45.0)
  end
  begin
     id 29
     name rfingers
     direction -1 -4.48998e-011 4.59888e-026   
     length 0.478954   
     axis -2.93383e-014 -90 -90   XYZ
    dof rx
    limits (0.0 90.0)
  end
  begin
     id 30
     name rthumb
     direction -0.707107 -6.34933e-011 0.707107   
     length 0.687685   
     axis -90 -45 -5.69224e-014   XYZ
    dof rx rz
    limits (-45.0 45.0)
           (-45.0 45.0)
  end
:hierarchy
  begin
    root lhipjoint rhipjoint lowerback
    lhipjoint lfemur
    lfemur ltibia
    ltibia lfoot
    lfoot ltoes
    rhipjoint rfemur
    rfemur rtibia
    rtibia rfoot
    rfoot rtoes
    lowerback upperback
    upperback thorax
    thorax lowerneck lclavicle rclavicle
    lowerneck upperneck
    upperneck head
    lclavicle lhumerus
    lhumerus lradius
    lradius lwrist
    lwrist lhand lthumb
    lhand lfingers
    rclavicle rhumerus
    rhumerus rradius
    rradius rwrist
    rwrist rhand rthumb
    rhand rfingers
  end

#!OML:ASF E:\pregnant2\Project 1\Capture day 1\Session 1\pregnant2.ASF
:FULLY-SPECIFIED
:DEGREES
403
root 4.8949 19.5426 -3.72204 -152.596 5.83192 178.689
lowerback -4.56066 -1.81741 -3.2859
upperback -11.2599 -0.982402 1.88347
thorax -9.24786 0.502505 3.77629
lowerneck -11.2968 -6.45159 -2.02423
upperneck 48.3965 2.94109 -5.85588
head 22.176 2.74389 -1.06175
rclavicle -1.22253e-014 1.98785e-015
rhumerus -52.8898 5.67119 -77.7427
rradius 45.596
rwrist 5.67844
rhand -12.4847 -14.5112
rfingers 7.12502
rthumb 13.5899 -44.0477
lclavicle -1.22253e-014 1.98785e-015
lhumerus -40.7405 -4.42405 88.0308
lradius 43.1504
lwrist 0.745354
lhand -11.3213 28.9603
lfingers 7.12502
lthumb 14.711 58.4183
rfemur -85.6176 2.125 25.943
rtibia 76.385
rfoot -16.2642 -8.09904
rtoes -2.63582
lfemur -36.0951 -11.5508 -24.126
ltibia 33.3299
lfoot -14.959 19.9426
ltoes -17.1273
404
root 4.91003 19.5497 -3.79508 -152.292 5.84731 178.826
lowerback -4.71362 -1.80077 -3.09504
upperback -11.3348 -0.926367 1.91583
thorax -9.24991 0.527694 3.69894
lowerneck -11.4825 -6.40249 -1.94308
upperneck 48.3056 2.91141 -5.87199
head 22.1607 2.72197 -1.09872
rclavicle -3.45388e-015 -2.90226e-014
rhumerus -52.8183 5.50417 -77.7013
rradius 45.2817
rwrist 5.70698
rhand -12.5141 -14.4792
rfingers 7.12502
rthumb 13.5615 -44.0176
lclavicle -3.45388e-015 -2.90226e-014
lhumerus -40.7315 -4.41061 88.0057
lradius 43.0848
lwrist 0.736837
lhand -11.3297 29.039
lfingers 7.12502
lthumb 14.7028 58.4976
rfemur -85.4125 2.26231 26.2378
rtibia 76.1884
rfoot -16.3491 -8.55341
rtoes -1.55679
lfemur -36.1639 -11.5312 -23.9289
ltibia 33.3442
lfoot -14.6245 19.8984
ltoes -18.135
405
root 4.9338 19.567 -3.87353 -152.147 5.85355 178.843
lowerback -4.74501 -1.81212 -3.12791
upperback -11.3822 -0.927658 1.93503
thorax -9.28472 0.538184 3.73717
lowerneck -11.6523 -6.35672 -1.82659
upperneck 48.2488 2.93807 -5.96101
head 22.1788 2.7284 -1.16819
rclavicle -3.72721e-016 -2.22639e-014
rhumerus -52.8032 5.3225 -77.689
rradius 45.098
rwrist 5.74152
rhand -11.9764 -15.2534
rfingers 7.12502
rthumb 14.0797 -44.7565
lclavicle -3.72721e-016 -2.22639e-014
lhumerus -40.8348 -4.38052 87.9605
lradius 43.0487
lwrist 0.749222
lhand -11.2049 28.9717
lfingers 7.12502
lthumb 14.8231 58.4215
rfemur -85.2063 2.39831 26.3584
rtibia 76.176
rfoot -16.5631 -8.43765
rtoes 0.0280713
lfemur -36.0349 -11.5271 -23.8412
ltibia 33.3335
lfoot -14.4794 19.8134
ltoes -19.2169
406
root 4.95415 19.5952 -3.95371 -152.006 5.78117 178.942
lowerback -4.83248 -1.82679 -3.00859
upperback -11.4796 -0.910036 2.00674
thorax -9.34624 0.556245 3.7443
lowerneck -11.5746 -6.33293 -1.93244
upperneck 48.1689 2.96177 -5.935
head 22.0798 2.71681 -1.12757
rclavicle -2.46741e-014 -1.51076e-014
rhumerus -53.052 5.22214 -77.6173
rradius 44.9623
rwrist 5.76712
rhand -12.3843 -14.6542
rfingers 7.12502
rthumb 13.6867 -44.1842
lclavicle -2.46741e-014 -1.51076e-014
lhumerus -41.0947 -4.2046 87.9531
lradius 43.0737
lwrist 0.566452
lhand -11.1384 29.0422
lfingers 7.12502
lthumb 14.8872 58.4873
rfemur -85.0362 2.55154 26.4236
rtibia 76.2153
rfoot -16.7577 -8.46885
rtoes 1.13735
lfemur -35.9079 -11.5434 -23.6619
ltibia 33.3818
lfoot -14.2677 19.6973
ltoes -19.9605
407
root 4.97754 19.6201 -4.03233 -151.885 5.7531 179.034
lowerback -4.84415 -1.82012 -2.92695
upperback -11.4497 -0.90351 2.03932
thorax -9.30665 0.550192 3.73314
lowerneck -12.1229 -6.33616 -2.26811
upperneck 48.3521 2.87798 -5.50179
head 22.4379 2.64893 -0.852913
rclavicle -1.64991e-014 9.14409e-015
rhumerus -52.9566 5.05502 -77.6272
rradius 44.7888
rwrist 5.81281
rhand -12.5457 -14.6229
rfingers 7.12502
rthumb 13.5311 -44.1633
lclavicle -1.64991e-014 9.14409e-015
lhumerus -41.0641 -4.10685 87.8857
lradius 42.9828
lwrist 0.584389
lhand -11.3 28.8663
lfingers 7.12502
lthumb 14.7315 58.3229
rfemur -84.878 2.79005 26.4119
rtibia 76.233
rfoot -16.7265 -8.88675
rtoes 0.633588
lfemur -35.7779 -11.4956 -23.5074
ltibia 33.4341
lfoot -14.026 19.5447
ltoes -20.5727
408
root 4.99942 19.6393 -4.11155 -151.78 5.77784 179.163
lowerback -4.77206 -1.78587 -2.79326
upperback -11.4763 -0.852027 2.06645
thorax -9.3851 0.569223 3.6866
lowerneck -12.3226 -6.24475 -2.16192
upperneck 48.218 2.91237 -5.55861
head 22.3944 2.64751 -0.904297
rclavicle 8.52289e-015 2.14687e-014
rhumerus -53.0073 4.93473 -77.6611
rradius 44.5553
rwrist 5.72686
rhand -12.6268 -14.6577
rfingers 7.12502
rthumb 13.4529 -44.2033
lclavicle 8.52289e-015 2.14687e-014
lhumerus -41.2269 -3.98689 87.8087
lradius 43.0464
lwrist 0.598064
lhand -11.3125 28.9414
lfingers 7.12502
lthumb 14.7195 58.3988
rfemur -84.6189 3.07869 26.3768
rtibia 76.1924
rfoot -16.8699 -9.01632
rtoes 0.42078
lfemur -35.6626 -11.4199 -23.3356
ltibia 33.5667
lfoot -13.7828 19.3842
ltoes -21.1194
409
root 5.02076 19.6642 -4.19309 -151.734 5.82764 179.351
lowerback -4.6933 -1.73839 -2.61569
upperback -11.5195 -0.774198 2.13195
thorax -9.48908 0.602282 3.65557
lowerneck -12.2781 -6.16944 -2.0413
upperneck 48.0518 2.99735 -5.73451
head 22.2381 2.66915 -1.00726
rclavicle -1.08586e-014 5.1684e-015
rhumerus -53.1572 4.90383 -77.6787
rradius 44.4295
rwrist 5.86579
rhand -12.5804 -14.8369
rfingers 7.12502
rthumb 13.4976 -44.3795
lclavicle -1.08586e-014 5.1684e-015
lhumerus -41.4592 -3.87301 87.8001
lradius 42.9156
lwrist 0.615722
lhand -11.3855 28.8409
lfingers 7.12502
lthumb 14.6491 58.3035
rfemur -84.2274 3.39254 26.356
rtibia 76.0703
rfoot -17.1043 -9.05583
rtoes 0.482691
lfemur -35.5155 -11.3445 -23.1115
ltibia 33.7939
lfoot -13.4667 19.2506
ltoes -21.791
410
root 5.04271 19.6893 -4.26192 -151.738 5.91371 179.353
lowerback -4.41842 -1.71136 -2.67586
upperback -11.6512 -0.721939 2.1736
thorax -9.80569 0.653393 3.73567
lowerneck -12.0319 -6.17878 -2.24096
upperneck 48.0621 3.07527 -5.67668
head 22.1603 2.68776 -0.91378
rclavicle 2.80783e-015 1.11319e-014
rhumerus -53.4625 4.88981 -77.6643
rradius 44.2119
rwrist 5.90823
rhand -12.6416 -14.5965
rfingers 7.12502
rthumb 13.4386 -44.143
lclavicle 2.80783e-015 1.11319e-014
lhumerus -41.92 -3.54899 87.7635
lradius 42.9577
lwrist 0.461949
lhand -11.3281 28.8775
lfingers 7.12502
lthumb 14.7044 58.336
rfemur -83.8316 3.62418 26.1961
rtibia 75.9187
rfoot -17.2948 -9.14439
rtoes 0.376742
lfemur -35.4221 -11.255 -23.0972
ltibia 34.0706
lfoot -13.0889 19.0226
ltoes -22.4299
411
root 5.06223 19.7195 -4.33674 -151.616 5.9389 179.512
lowerback -4.34087 -1.67366 -2.46718
upperback -11.7001 -0.655564 2.21988
thorax -9.91512 0.677168 3.66639
lowerneck -12.082 -6.10886 -2.23604
upperneck 47.9539 3.12453 -5.68762
head 22.0855 2.69016 -0.913569
rclavicle -1.52567e-014 1.19271e-014
rhumerus -53.4686 4.80648 -77.6722
rradius 43.8627
rwrist 5.98965
rhand -12.7642 -14.5673
rfingers 7.12502
rthumb 13.3205 -44.1216
lclavicle -1.52567e-014 1.19271e-014
lhumerus -42.159 -3.27982 87.6564
lradius 42.9191
lwrist 0.294603
lhand -11.2088 29.0013
lfingers 7.12502
lthumb 14.8194 58.4514
rfemur -83.4069 3.85952 26.2618
rtibia 75.6731
rfoot -17.5669 -9.26392
rtoes -0.106105
lfemur -35.4359 -11.1572 -22.8957
ltibia 34.3404
lfoot -12.6043 18.7986
ltoes -23.3185
